<svg width="387" height="64" viewBox="0 0 387 64" fill="none" xmlns="http://www.w3.org/2000/svg">
<path d="M31.2273 18.8182C31.0303 18.0152 30.7197 17.3106 30.2955 16.7045C29.8712 16.0833 29.3409 15.5606 28.7045 15.1364C28.0833 14.697 27.3561 14.3712 26.5227 14.1591C25.7045 13.9318 24.803 13.8182 23.8182 13.8182C21.697 13.8182 19.8864 14.3258 18.3864 15.3409C16.9015 16.3561 15.7652 17.8182 14.9773 19.7273C14.2045 21.6364 13.8182 23.9394 13.8182 26.6364C13.8182 29.3636 14.1894 31.697 14.9318 33.6364C15.6742 35.5758 16.7803 37.0606 18.25 38.0909C19.7197 39.1212 21.5455 39.6364 23.7273 39.6364C25.6515 39.6364 27.25 39.3561 28.5227 38.7955C29.8106 38.2348 30.7727 37.4394 31.4091 36.4091C32.0455 35.3788 32.3636 34.1667 32.3636 32.7727L34.5455 33H23.9091V24H44.5455V30.4545C44.5455 34.697 43.6439 38.3258 41.8409 41.3409C40.053 44.3409 37.5833 46.6439 34.4318 48.25C31.2955 49.8409 27.697 50.6364 23.6364 50.6364C19.1061 50.6364 15.1288 49.6742 11.7045 47.75C8.2803 45.8258 5.60606 43.0833 3.68182 39.5227C1.77273 35.9621 0.818182 31.7273 0.818182 26.8182C0.818182 22.9697 1.40152 19.5606 2.56818 16.5909C3.75 13.6212 5.38636 11.1136 7.47727 9.06818C9.56818 7.00757 11.9848 5.45454 14.7273 4.40909C17.4697 3.34848 20.4091 2.81818 23.5455 2.81818C26.303 2.81818 28.8636 3.21212 31.2273 4C33.6061 4.77273 35.7045 5.87879 37.5227 7.31818C39.3561 8.74242 40.8333 10.4318 41.9545 12.3864C43.0758 14.3409 43.7576 16.4848 44 18.8182H31.2273ZM58.2557 63.0909C56.8163 63.0909 55.4451 62.9773 54.142 62.75C52.839 62.5379 51.6951 62.2424 50.7102 61.8636L53.4375 52.9545C54.4678 53.3182 55.4072 53.553 56.2557 53.6591C57.1193 53.7652 57.8542 53.7045 58.4602 53.4773C59.0814 53.25 59.5284 52.8182 59.8011 52.1818L60.0739 51.5455L47.8011 15.0909H60.892L66.5284 39.2727H66.892L72.6193 15.0909H85.8011L73.0739 52.9091C72.4375 54.8333 71.5133 56.5606 70.3011 58.0909C69.1042 59.6364 67.5284 60.8561 65.5739 61.75C63.6193 62.6439 61.1799 63.0909 58.2557 63.0909ZM89.3693 50V15.0909H101.278V21.7273H101.642C102.369 19.5455 103.612 17.8182 105.369 16.5455C107.127 15.2727 109.218 14.6364 111.642 14.6364C114.097 14.6364 116.21 15.2879 117.983 16.5909C119.756 17.8788 120.824 19.5909 121.188 21.7273H121.551C122.142 19.5909 123.4 17.8788 125.324 16.5909C127.248 15.2879 129.506 14.6364 132.097 14.6364C135.445 14.6364 138.157 15.7121 140.233 17.8636C142.324 20.0152 143.369 22.8788 143.369 26.4545V50H130.824V29.6364C130.824 28.1061 130.438 26.9091 129.665 26.0455C128.892 25.1667 127.854 24.7273 126.551 24.7273C125.263 24.7273 124.241 25.1667 123.483 26.0455C122.741 26.9091 122.369 28.1061 122.369 29.6364V50H110.369V29.6364C110.369 28.1061 109.983 26.9091 109.21 26.0455C108.438 25.1667 107.4 24.7273 106.097 24.7273C105.233 24.7273 104.491 24.9242 103.869 25.3182C103.248 25.7121 102.763 26.2803 102.415 27.0227C102.081 27.75 101.915 28.6212 101.915 29.6364V50H89.3693ZM319.875 50.7273C318.117 50.7273 316.61 50.1136 315.352 48.8864C314.11 47.6439 313.496 46.1364 313.511 44.3636C313.496 42.6364 314.11 41.1591 315.352 39.9318C316.61 38.7045 318.117 38.0909 319.875 38.0909C321.542 38.0909 323.011 38.7045 324.284 39.9318C325.572 41.1591 326.223 42.6364 326.239 44.3636C326.223 45.5455 325.913 46.6212 325.307 47.5909C324.716 48.5455 323.943 49.3106 322.989 49.8864C322.034 50.447 320.996 50.7273 319.875 50.7273ZM333.057 50V15.0909H345.602V50H333.057ZM339.33 11.4545C337.633 11.4545 336.178 10.8939 334.966 9.77273C333.754 8.65151 333.148 7.30303 333.148 5.72727C333.148 4.15151 333.754 2.80303 334.966 1.68182C336.178 0.560605 337.633 0 339.33 0C341.042 0 342.496 0.560605 343.693 1.68182C344.905 2.80303 345.511 4.15151 345.511 5.72727C345.511 7.30303 344.905 8.65151 343.693 9.77273C342.496 10.8939 341.042 11.4545 339.33 11.4545ZM368.812 50.6364C365.025 50.6364 361.782 49.8864 359.085 48.3864C356.388 46.8712 354.32 44.7652 352.881 42.0682C351.441 39.3561 350.722 36.2121 350.722 32.6364C350.722 29.0606 351.441 25.9242 352.881 23.2273C354.32 20.5152 356.388 18.4091 359.085 16.9091C361.782 15.3939 365.025 14.6364 368.812 14.6364C372.6 14.6364 375.843 15.3939 378.54 16.9091C381.237 18.4091 383.305 20.5152 384.744 23.2273C386.184 25.9242 386.903 29.0606 386.903 32.6364C386.903 36.2121 386.184 39.3561 384.744 42.0682C383.305 44.7652 381.237 46.8712 378.54 48.3864C375.843 49.8864 372.6 50.6364 368.812 50.6364ZM368.903 41.3636C369.964 41.3636 370.881 41.0076 371.653 40.2955C372.426 39.5833 373.025 38.5682 373.449 37.25C373.873 35.9318 374.085 34.3636 374.085 32.5455C374.085 30.7121 373.873 29.1439 373.449 27.8409C373.025 26.5227 372.426 25.5076 371.653 24.7955C370.881 24.0833 369.964 23.7273 368.903 23.7273C367.782 23.7273 366.82 24.0833 366.017 24.7955C365.214 25.5076 364.6 26.5227 364.176 27.8409C363.752 29.1439 363.54 30.7121 363.54 32.5455C363.54 34.3636 363.752 35.9318 364.176 37.25C364.6 38.5682 365.214 39.5833 366.017 40.2955C366.82 41.0076 367.782 41.3636 368.903 41.3636Z" fill="#FF9900"/>
<path d="M152.011 50V3.45454H157.648V24.1818H182.466V3.45454H188.102V50H182.466V29.1818H157.648V50H152.011ZM212.841 50.7273C209.689 50.7273 206.924 49.9773 204.545 48.4773C202.182 46.9773 200.333 44.8788 199 42.1818C197.682 39.4848 197.023 36.3333 197.023 32.7273C197.023 29.0909 197.682 25.9167 199 23.2045C200.333 20.4924 202.182 18.3864 204.545 16.8864C206.924 15.3864 209.689 14.6364 212.841 14.6364C215.992 14.6364 218.75 15.3864 221.114 16.8864C223.492 18.3864 225.341 20.4924 226.659 23.2045C227.992 25.9167 228.659 29.0909 228.659 32.7273C228.659 36.3333 227.992 39.4848 226.659 42.1818C225.341 44.8788 223.492 46.9773 221.114 48.4773C218.75 49.9773 215.992 50.7273 212.841 50.7273ZM212.841 45.9091C215.235 45.9091 217.205 45.2955 218.75 44.0682C220.295 42.8409 221.439 41.2273 222.182 39.2273C222.924 37.2273 223.295 35.0606 223.295 32.7273C223.295 30.3939 222.924 28.2197 222.182 26.2045C221.439 24.1894 220.295 22.5606 218.75 21.3182C217.205 20.0758 215.235 19.4545 212.841 19.4545C210.447 19.4545 208.477 20.0758 206.932 21.3182C205.386 22.5606 204.242 24.1894 203.5 26.2045C202.758 28.2197 202.386 30.3939 202.386 32.7273C202.386 35.0606 202.758 37.2273 203.5 39.2273C204.242 41.2273 205.386 42.8409 206.932 44.0682C208.477 45.2955 210.447 45.9091 212.841 45.9091ZM251.028 50.7273C247.877 50.7273 245.112 49.9773 242.733 48.4773C240.369 46.9773 238.521 44.8788 237.188 42.1818C235.869 39.4848 235.21 36.3333 235.21 32.7273C235.21 29.0909 235.869 25.9167 237.188 23.2045C238.521 20.4924 240.369 18.3864 242.733 16.8864C245.112 15.3864 247.877 14.6364 251.028 14.6364C254.18 14.6364 256.938 15.3864 259.301 16.8864C261.68 18.3864 263.528 20.4924 264.847 23.2045C266.18 25.9167 266.847 29.0909 266.847 32.7273C266.847 36.3333 266.18 39.4848 264.847 42.1818C263.528 44.8788 261.68 46.9773 259.301 48.4773C256.938 49.9773 254.18 50.7273 251.028 50.7273ZM251.028 45.9091C253.422 45.9091 255.392 45.2955 256.938 44.0682C258.483 42.8409 259.627 41.2273 260.369 39.2273C261.112 37.2273 261.483 35.0606 261.483 32.7273C261.483 30.3939 261.112 28.2197 260.369 26.2045C259.627 24.1894 258.483 22.5606 256.938 21.3182C255.392 20.0758 253.422 19.4545 251.028 19.4545C248.634 19.4545 246.665 20.0758 245.119 21.3182C243.574 22.5606 242.43 24.1894 241.688 26.2045C240.945 28.2197 240.574 30.3939 240.574 32.7273C240.574 35.0606 240.945 37.2273 241.688 39.2273C242.43 41.2273 243.574 42.8409 245.119 44.0682C246.665 45.2955 248.634 45.9091 251.028 45.9091ZM288.216 50.7273C285.307 50.7273 282.739 49.9924 280.511 48.5227C278.284 47.0379 276.542 44.947 275.284 42.25C274.027 39.5379 273.398 36.3333 273.398 32.6364C273.398 28.9697 274.027 25.7879 275.284 23.0909C276.542 20.3939 278.292 18.3106 280.534 16.8409C282.777 15.3712 285.367 14.6364 288.307 14.6364C290.58 14.6364 292.375 15.0152 293.693 15.7727C295.027 16.5152 296.042 17.3636 296.739 18.3182C297.451 19.2576 298.004 20.0303 298.398 20.6364H298.852V3.45454H304.216V50H299.034V44.6364H298.398C298.004 45.2727 297.443 46.0758 296.716 47.0455C295.989 48 294.951 48.8561 293.602 49.6136C292.254 50.3561 290.458 50.7273 288.216 50.7273ZM288.943 45.9091C291.095 45.9091 292.913 45.3485 294.398 44.2273C295.883 43.0909 297.011 41.5227 297.784 39.5227C298.557 37.5076 298.943 35.1818 298.943 32.5455C298.943 29.9394 298.564 27.6591 297.807 25.7045C297.049 23.7348 295.928 22.2045 294.443 21.1136C292.958 20.0076 291.125 19.4545 288.943 19.4545C286.67 19.4545 284.777 20.0379 283.261 21.2045C281.761 22.3561 280.633 23.9242 279.875 25.9091C279.133 27.8788 278.761 30.0909 278.761 32.5455C278.761 35.0303 279.14 37.2879 279.898 39.3182C280.67 41.3333 281.807 42.9394 283.307 44.1364C284.822 45.3182 286.701 45.9091 288.943 45.9091Z" fill="#181818"/>
</svg>
